<?xml version="1.0" encoding="UTF-8" standalone="no"?>
<!-- Created with Inkscape (http://www.inkscape.org/) -->

<svg
   width="197.91402mm"
   height="197.82899mm"
   viewBox="0 0 197.91402 197.82899"
   version="1.1"
   id="svg1"
   xmlns="http://www.w3.org/2000/svg"
   xmlns:svg="http://www.w3.org/2000/svg">
  <defs
     id="defs1" />
  <g
     id="layer1"
     transform="translate(530.00001,209.99998)">
    <g
       id="g60"
       transform="translate(-268.46043,332.42794)"
       style="fill:none;fill-opacity:1;stroke:#ec0000;stroke-opacity:1">
      <path
         d="m -199.75764,-480.63117 a 53.000088,53.000084 15 0 1 23.83012,-13.75833 l -3.89836,-14.43813 a 67.966698,67.966698 45 0 0 -30.48637,17.60132 z"
         style="display:inline;fill:none;fill-opacity:1;fill-rule:evenodd;stroke:#ec0000;stroke-width:2.0666;stroke-linecap:round;stroke-linejoin:round;stroke-opacity:1"
         id="path29-5-5" />
      <path
         d="m -189.15705,-469.99001 a 38.002434,38.002434 0 0 1 17.14475,-9.89853 l -3.91522,-14.50096 a 53.000088,53.000084 15 0 0 -23.83012,13.75833 z"
         style="display:inline;fill:none;fill-opacity:1;fill-rule:evenodd;stroke:#ec0000;stroke-width:2.0666;stroke-linecap:round;stroke-linejoin:round;stroke-opacity:1"
         id="path27-55-52" />
      <path
         d="m -161.97173,-442.7007 -0.12338,0.12316 0.0974,-0.0263 z"
         style="display:inline;fill:none;fill-opacity:1;fill-rule:evenodd;stroke:#ec0000;stroke-width:2.0666;stroke-linecap:round;stroke-linejoin:round;stroke-opacity:1"
         id="path23-1-6" />
      <path
         d="m -161.97173,-442.7007 -0.0259,0.0968 0.0485,-0.0132 z"
         style="display:inline;fill:none;fill-opacity:1;fill-rule:evenodd;stroke:#ec0000;stroke-width:2.0666;stroke-linecap:round;stroke-linejoin:round;stroke-opacity:1"
         id="path22-4-50" />
      <path
         d="m -161.97173,-442.7007 0.0225,0.0836 0.0478,-0.0129 z"
         style="display:inline;fill:none;fill-opacity:1;fill-rule:evenodd;stroke:#ec0000;stroke-width:2.0666;stroke-linecap:round;stroke-linejoin:round;stroke-opacity:1"
         id="path21-0-5" />
      <path
         d="m -161.97173,-442.7007 0.0704,0.0707 0.0959,-0.0262 z"
         style="display:inline;fill:none;fill-opacity:1;fill-rule:evenodd;stroke:#ec0000;stroke-width:2.0666;stroke-linecap:round;stroke-linejoin:round;stroke-opacity:1"
         id="path20-7-11" />
      <path
         d="m -152.01081,-479.87534 a 38.002434,38.002434 0 0 0 -0.47891,-0.14541 38.002434,38.002434 0 0 0 -19.52259,0.13225 l 3.89928,14.44266 a 23.000019,23.000021 15 0 1 11.74033,-0.0834 23.000019,23.000021 15 0 1 0.47781,0.14946 z"
         style="display:inline;fill:none;fill-opacity:1;fill-rule:evenodd;stroke:#ec0000;stroke-width:2.0666;stroke-linecap:round;stroke-linejoin:round;stroke-opacity:1"
         id="path19-2-3" />
      <path
         d="m -148.1285,-494.36434 a 53.000088,53.000084 15 0 0 -0.47956,-0.14295 53.000088,53.000084 15 0 0 -27.31946,0.1178 l 3.91522,14.50095 a 38.002434,38.002434 0 0 1 19.52259,-0.13224 38.002434,38.002434 0 0 1 0.47891,0.1454 z"
         style="display:inline;fill:none;fill-opacity:1;fill-rule:evenodd;stroke:#ec0000;stroke-width:2.0666;stroke-linecap:round;stroke-linejoin:round;stroke-opacity:1"
         id="path17-0-8" />
      <path
         d="m -148.1285,-494.36434 -3.88231,14.489 a 38.002434,38.002434 0 0 1 17.0743,10.24277 l 10.62447,-10.5842 a 53.000088,53.000084 15 0 0 -23.81646,-14.14757 z"
         style="display:inline;fill:none;fill-opacity:1;fill-rule:evenodd;stroke:#ec0000;stroke-width:2.0666;stroke-linecap:round;stroke-linejoin:round;stroke-opacity:1"
         id="path16-2-9" />
      <path
         d="m -144.25461,-508.8219 a 67.966698,67.966698 45 0 0 -0.47934,-0.14181 67.966698,67.966698 45 0 0 -35.09193,0.13608 l 3.89836,14.43813 a 53.000088,53.000084 15 0 1 27.31946,-0.11779 53.000088,53.000084 15 0 1 0.47956,0.14294 z"
         style="display:inline;fill:none;fill-opacity:1;fill-rule:evenodd;stroke:#ec0000;stroke-width:2.0666;stroke-linecap:round;stroke-linejoin:round;stroke-opacity:1"
         id="path3-2-1" />
      <path
         d="m -144.25461,-508.8219 -3.87389,14.45756 a 53.000088,53.000084 15 0 1 23.81646,14.14757 l 10.60268,-10.56276 a 67.966698,67.966698 45 0 0 -30.54525,-18.04237 z"
         style="display:inline;fill:none;fill-opacity:1;fill-rule:evenodd;stroke:#ec0000;stroke-width:2.0666;stroke-linecap:round;stroke-linejoin:round;stroke-opacity:1"
         id="path1-5-9" />
    </g>
    <rect
       style="fill:none;fill-rule:evenodd;stroke:#ec0000;stroke-width:0.310813;stroke-linecap:round;stroke-linejoin:round;stroke-opacity:0"
       id="rect1"
       width="197.6032"
       height="197.51819"
       x="-529.8446"
       y="-209.84459" />
  </g>
</svg>
