<?xml version="1.0" encoding="UTF-8" standalone="no"?>
<svg
   width="198mm"
   height="198mm"
   viewBox="-100 -100 200 200"
   version="1.1"
   id="svg72"
   sodipodi:docname="11.svg"
   inkscape:version="1.4.2 (f4327f4, 2025-05-13)"
   xmlns:inkscape="http://www.inkscape.org/namespaces/inkscape"
   xmlns:sodipodi="http://sodipodi.sourceforge.net/DTD/sodipodi-0.dtd"
   xmlns="http://www.w3.org/2000/svg"
   xmlns:svg="http://www.w3.org/2000/svg">
  <sodipodi:namedview
     id="namedview72"
     pagecolor="#ffffff"
     bordercolor="#000000"
     borderopacity="0.25"
     inkscape:showpageshadow="2"
     inkscape:pageopacity="0.0"
     inkscape:pagecheckerboard="0"
     inkscape:deskcolor="#d1d1d1"
     inkscape:document-units="mm"
     inkscape:zoom="1.0463068"
     inkscape:cx="489.34022"
     inkscape:cy="372.26175"
     inkscape:window-width="1920"
     inkscape:window-height="1001"
     inkscape:window-x="-9"
     inkscape:window-y="-9"
     inkscape:window-maximized="1"
     inkscape:current-layer="g72" />
  <style
     id="style1">
    .seg {
      stroke: #000000;
      stroke-width: 1;
      stroke-linejoin: round;
      stroke-linecap: round;
    }
    text {
      font-family: Arial, sans-serif;
      fill: #000000;
      text-anchor: middle;
      dominant-baseline: middle;
    }
  </style>
  <!-- background -->
  <!-- sector templates (30° wedges) -->
  <defs
     id="defs1">
    <!-- outer radius 90 -->
    <path
       id="sector90"
       d="M 0,0 L 0,-90 A 90,90 0 0 1 45,-77.942 Z" />
    <!-- middle radius 70 -->
    <path
       id="sector70"
       d="M 0,0 L 0,-70 A 70,70 0 0 1 35,-60.622 Z" />
    <!-- inner radius 50 -->
    <path
       id="sector50"
       d="M 0,0 L 0,-50 A 50,50 0 0 1 25,-43.301 Z" />
  </defs>
  <!-- color sequence (same for all 3 rings, per key family)
       C, G, D, A, E, B, F#, C#, Ab, Eb, Bb, F -->
  <!-- major ring (outer: between r=70 and r=90) -->
  <!-- cut inner edge of major ring -->
  <!-- minor ring (middle: between r=50 and r=70) -->
  <!-- cut inner edge of minor ring -->
  <!-- diminished ring (inner colored ring: between r=30 and r=50) -->
  <!-- central white disk & border -->
  <!-- center dot (1–2 mm) -->
  <path
     d="M 69.401092,-9.136648 A 70,70 0 0 1 69.999808,1.6312006e-4 70,70 0 0 1 69.401092,9.1369742 a 70,70 0 0 0 0,-18.2736222 z"
     style=""
     id="path148" />
  <path
     d="m 18.11719,-67.614536 -5.175995,19.318113 a 50,50 0 0 1 22.414001,12.941032 L 49.497313,-49.497509 A 70,70 0 0 0 18.11719,-67.614536 Z"
     style="fill:#afff00;fill-opacity:1"
     id="path147" />
  <path
     d="m -49.572152,-6.5262051 a 50,50 0 0 0 -0.428027,6.52636822006 50,50 0 0 0 0.401927,6.12444037994 50,50 0 0 1 0.0261,-12.6508086 z"
     style=""
     id="path146" />
  <path
     d="m -48.296423,-12.940869 a 50,50 0 0 0 -1.275729,6.4146639 50,50 0 0 1 1.276251,-6.4146639 z"
     style=""
     id="path145" />
  <path
     d="m -67.614536,18.117712 h -5.22e-4 a 70,70 0 0 0 2.943469,8.670157 70,70 0 0 1 -2.942947,-8.670157 z"
     style=""
     id="path144" />
  <path
     d="M -48.296423,12.941195 A 50,50 0 0 1 -49.598252,6.1246035 50,50 0 0 1 -50.000179,1.6312006e-4 50,50 0 0 1 -48.296423,-12.940869 l -19.318635,-5.176517 a 70,70 0 0 0 0,36.234576 z"
     style="fill:#ff0000;fill-opacity:1"
     id="path143" />
  <path
     d="m -48.296423,12.941195 -19.318113,5.175995 a 70,70 0 0 1 0,5.22e-4 z"
     style=""
     id="path142" />
  <path
     d="m -48.295901,12.941195 h -5.22e-4 a 50,50 0 0 0 2.102552,6.19282 50,50 0 0 1 -2.10203,-6.19282 z"
     style=""
     id="path141" />
  <path
     d="m -28.977789,7.7646778 -19.318112,5.1759952 a 50,50 0 0 1 0,5.22e-4 z"
     style=""
     id="path140" />
  <path
     d="m -28.977789,-7.7643515 -19.318112,-5.1765175 a 50,50 0 0 0 -5.22e-4,25.881542 h 5.22e-4 L -28.977789,7.7646778 A 30,30 0 0 1 -29.999834,1.6312006e-4 30,30 0 0 1 -28.977789,-7.7643515 Z"
     style="fill:#ffaf00;fill-opacity:1"
     id="path139" />
  <path
     d="m -28.977789,-7.7648735 -19.318112,-5.1759955 19.318112,5.1765175 a 30,30 0 0 1 0,-5.22e-4 z"
     style=""
     id="path138" />
  <path
     d="m -21.213274,-21.213274 -14.142117,-14.141595 a 50,50 0 0 0 -12.941032,22.414 h 5.22e-4 l 19.318112,5.1759955 a 30,30 0 0 1 7.764515,-13.4484005 z"
     style="fill:#ffff00;fill-opacity:1"
     id="path137" />
  <path
     d="m -35.355391,-35.355391 14.142117,14.142117 -14.141595,-14.142117 z"
     style=""
     id="path136" />
  <path
     d="m -49.497509,-49.497509 a 70,70 0 0 0 -18.117027,31.380123 l 19.318113,5.176517 a 50,50 0 0 1 12.941032,-22.414 v -5.22e-4 z"
     style="fill:#ff6000;fill-opacity:1"
     id="path135" />
  <path
     d="m -18.117386,-67.615058 a 70,70 0 0 0 -8.670679,2.943469 70,70 0 0 1 8.670679,-2.942947 z"
     style=""
     id="path134" />
  <path
     d="m -23.293903,-86.93317 5.176517,19.318112 -5.175995,-19.318112 a 90,90 0 0 1 -5.22e-4,0 z"
     style=""
     id="path133" />
  <path
     d="m -63.639104,-63.639626 14.141595,14.142117 a 70,70 0 0 1 31.380123,-18.117549 l -5.176517,-19.318112 a 90,90 0 0 0 -40.345201,23.293544 z"
     style="fill:#c800b4;fill-opacity:1"
     id="path132" />
  <path
     d="m -86.93317,-23.293903 19.318112,5.176517 h 5.22e-4 a 70,70 0 0 1 18.117027,-31.380123 l -14.142117,-14.142117 a 90,90 0 0 0 -23.293544,40.345723 z"
     style="fill:#7800ff;fill-opacity:1"
     id="path131" />
  <path
     d="m -86.93317,23.293707 19.318112,-5.176517 a 70,70 0 0 1 0,-36.234576 l -19.318112,-5.176517 a 90,90 0 0 0 0,46.58761 z"
     style="fill:#005aff;fill-opacity:1"
     id="path130" />
  <path
     d="m -63.639626,63.63943 14.142117,-14.141595 v -5.22e-4 A 70,70 0 0 1 -67.615058,18.117712 l -19.318112,5.175995 a 90,90 0 0 0 23.293544,40.345723 z"
     style="fill:#00b4c8;fill-opacity:1"
     id="path129" />
  <path
     d="M 60.62184,35.000246 A 70,70 0 0 1 49.497835,49.497313 L 63.63943,63.63943 A 90,90 0 0 0 86.933496,23.293707 L 67.614862,18.11719 A 70,70 0 0 1 60.62184,35.000246 Z"
     style="fill:#afff00;fill-opacity:1"
     id="path128" />
  <path
     d="m 49.497313,49.497313 h 5.22e-4 A 70,70 0 0 0 60.62184,35.000246 70,70 0 0 1 49.497313,49.496791 Z"
     style=""
     id="path127" />
  <path
     d="m 18.117712,67.614862 5.175995,19.318112 A 90,90 0 0 0 63.63943,63.63943 L 49.497835,49.497313 h -5.22e-4 A 70,70 0 0 1 18.117712,67.614862 Z"
     style="fill:#50f000;fill-opacity:1"
     id="path126" />
  <path
     d="m 18.11719,67.614862 5.176517,19.318112 -5.175995,-19.318112 a 70,70 0 0 1 -5.22e-4,0 z"
     style=""
     id="path125" />
  <path
     d="m -9.136648,69.401092 a 70,70 0 0 0 18.2736222,0 A 70,70 0 0 1 1.6312006e-4,69.999808 70,70 0 0 1 -9.136648,69.401092 Z"
     style=""
     id="path124" />
  <path
     d="m -18.117386,67.614862 -5.176517,19.318112 a 90,90 0 0 0 46.58761,5.22e-4 L 18.11719,67.614862 a 70,70 0 0 1 -36.234576,0 z"
     style="fill:#00de00;fill-opacity:1"
     id="path123" />
  <path
     d="M -34.99992,60.62184 A 70,70 0 0 1 -49.497509,49.497835 L -63.639626,63.63943 a 90,90 0 0 0 40.345723,23.294066 l 5.176517,-19.318634 A 70,70 0 0 1 -34.99992,60.62184 Z"
     style="fill:#00c878;fill-opacity:1"
     id="path122" />
  <path
     d="m -49.496987,49.497313 h -5.22e-4 v 5.22e-4 A 70,70 0 0 0 -34.99992,60.62184 70,70 0 0 1 -49.496987,49.497313 Z"
     style=""
     id="path121" />
  <path
     d="m -35.355391,35.355196 a 50,50 0 0 1 -10.83848,-16.221181 50,50 0 0 1 -2.102552,-6.19282 l -19.318113,5.176517 a 70,70 0 0 0 2.942947,8.670157 70,70 0 0 0 15.17408,22.709444 z"
     style="fill:#c800b4;fill-opacity:1"
     id="path120" />
  <path
     d="M -35.354869,35.355196 -21.213274,21.213078 A 30,30 0 0 1 -28.977789,7.7646778 l -19.318112,5.1765172 a 50,50 0 0 0 12.94051,22.414001 z"
     style="fill:#ff6000;fill-opacity:1"
     id="path119" />
  <path
     d="M -12.940869,48.296227 -7.7643515,28.977593 A 30,30 0 0 1 -21.213274,21.213078 l -14.141595,14.142118 a 50,50 0 0 0 22.414,12.941031 z"
     style="fill:#ff0000;fill-opacity:1"
     id="path118" />
  <path
     d="m -12.940869,48.296227 a 50,50 0 0 1 -22.414,-12.941031 h -5.22e-4 l -14.141596,14.142117 a 70,70 0 0 0 14.497067,11.124527 70,70 0 0 0 16.882534,6.993022 z"
     style="fill:#7800ff;fill-opacity:1"
     id="path117" />
  <path
     d="M 12.940673,48.296227 7.7646778,28.977593 A 30,30 0 0 1 1.6312006e-4,30.00016 30,30 0 0 1 -7.7643515,28.977593 l -5.1765175,19.318634 a 50,50 0 0 0 25.881542,0 z"
     style="fill:#c800b4;fill-opacity:1"
     id="path116" />
  <path
     d="M 12.940673,48.296227 A 50,50 0 0 1 1.6312006e-4,49.999984 50,50 0 0 1 -12.940869,48.296227 l -5.176517,19.318635 a 70,70 0 0 0 8.980738,1.78623 A 70,70 0 0 0 1.6312006e-4,69.999808 70,70 0 0 0 9.1369742,69.401092 70,70 0 0 0 18.11719,67.614862 Z"
     style="fill:#005aff;fill-opacity:1"
     id="path115" />
  <path
     d="M 12.941195,48.296227 7.7646778,28.977593 12.940673,48.296227 a 50,50 0 0 1 5.22e-4,0 z"
     style=""
     id="path114" />
  <path
     d="m 12.941195,48.296227 a 50,50 0 0 1 -5.22e-4,0 l 5.176517,19.318635 z"
     style=""
     id="path113" />
  <path
     d="m 12.941195,48.296227 5.175995,19.318635 a 70,70 0 0 1 5.22e-4,0 z"
     style=""
     id="path112" />
  <path
     d="M 35.355196,35.355196 21.213078,21.213078 A 30,30 0 0 1 7.7646778,28.977593 L 12.941195,48.296227 A 50,50 0 0 0 35.355196,35.355196 Z"
     style="fill:#7800ff;fill-opacity:1"
     id="path111" />
  <path
     d="m 35.355196,35.355196 a 50,50 0 0 1 -10.355123,7.946165 50,50 0 0 1 -12.058878,4.994866 l 5.176517,19.318635 A 70,70 0 0 0 35.000246,60.62184 70,70 0 0 0 49.497313,49.497313 Z"
     style="fill:#00b4c8;fill-opacity:1"
     id="path110" />
  <path
     d="M 48.296227,12.941195 A 50,50 0 0 1 35.355196,35.355196 L 49.497313,49.496791 A 70,70 0 0 0 60.62184,35.000246 70,70 0 0 0 67.614862,18.11719 Z"
     style="fill:#00c878;fill-opacity:1"
     id="path109" />
  <path
     d="M 48.296227,12.941195 67.614862,18.11719 48.296227,12.940673 a 50,50 0 0 1 0,5.22e-4 z"
     style=""
     id="path108" />
  <path
     d="M 28.977593,7.7646778 A 30,30 0 0 1 21.213078,21.213078 L 35.355196,35.355196 A 50,50 0 0 0 48.296227,12.941195 Z"
     style="fill:#005aff;fill-opacity:1"
     id="path107" />
  <path
     d="m 28.977593,7.7646778 19.318634,5.1765172 a 50,50 0 0 1 0,-5.22e-4 z"
     style=""
     id="path106" />
  <path
     d="m -12.940869,-48.295901 5.1759955,19.318112 a 30,30 0 0 1 5.22e-4,0 z"
     style=""
     id="path105" />
  <path
     d="m -19.134211,-46.193871 a 50,50 0 0 0 -16.220658,10.83848 l 14.141595,14.142117 a 30,30 0 0 1 13.4484005,-7.764515 l -5.1759955,-19.318112 a 50,50 0 0 0 -6.193342,2.10203 z"
     style="fill:#afff00;fill-opacity:1"
     id="path104" />
  <path
     d="m -12.940869,-48.296423 -5.176517,-19.318113 a 70,70 0 0 0 -8.670679,2.942947 70,70 0 0 0 -22.709444,15.17408 l 14.142118,14.142118 h 5.22e-4 a 50,50 0 0 1 16.220658,-10.83848 50,50 0 0 1 6.193342,-2.102552 z"
     style="fill:#ffaf00;fill-opacity:1"
     id="path103" />
  <path
     d="m -12.940869,-48.296423 a 50,50 0 0 0 -6.193342,2.102552 50,50 0 0 1 6.193342,-2.10203 z"
     style="fill:#ffffff"
     id="path102" />
  <path
     d="M 6.5260093,-49.572152 A 50,50 0 0 0 1.6312006e-4,-50.000179 50,50 0 0 0 -6.5262051,-49.572152 a 50,50 0 0 1 13.0522144,0 z"
     style=""
     id="path101" />
  <path
     d="m 6.5265313,-49.572152 a 50,50 0 0 1 6.4146637,1.275729 l 5.175995,-19.318635 a 70,70 0 0 0 -36.234576,0 l 5.176517,19.318635 a 50,50 0 0 1 6.4146639,-1.275729 50,50 0 0 1 6.52636822006,-0.428027 50,50 0 0 1 6.52584617994,0.428027 50,50 0 0 1 5.22e-4,0 z"
     style="fill:#ffff00;fill-opacity:1"
     id="path100" />
  <path
     d="m 12.940673,-48.295901 v -5.22e-4 a 50,50 0 0 0 -6.4141417,-1.275729 50,50 0 0 1 6.4141417,1.276251 z"
     style=""
     id="path99" />
  <path
     d="m 7.7646778,-28.977789 a 30,30 0 0 1 13.4484002,7.764515 L 35.355196,-35.355391 A 50,50 0 0 0 12.941195,-48.296423 Z"
     style="fill:#00de00;fill-opacity:1"
     id="path98" />
  <path
     d="m 7.7646778,-28.977789 5.1765172,-19.318112 a 50,50 0 0 1 -5.22e-4,0 z"
     style=""
     id="path97" />
  <path
     d="m 7.7646778,-28.977789 5.1759952,-19.318112 a 50,50 0 0 0 -25.881542,-5.22e-4 v 5.22e-4 l 5.1765175,19.318112 A 30,30 0 0 1 1.6312006e-4,-29.999834 30,30 0 0 1 7.7646778,-28.977789 Z"
     style="fill:#50f000;fill-opacity:1"
     id="path96" />
  <path
     d="M 1.6312006e-4,1.6312006e-4 1.060835,-1.0605087 A 1.5,1.5 0 0 0 0.38851935,-1.448865 Z"
     style=""
     id="path95" />
  <path
     d="M 1.6312006e-4,1.6312006e-4 0.38851935,-1.448865 A 1.5,1.5 0 0 0 1.6312006e-4,-1.5000194 1.5,1.5 0 0 0 -0.38819311,-1.448865 Z"
     style=""
     id="path94" />
  <path
     d="M 1.6312006e-4,1.6312006e-4 -0.38819311,-1.448865 a 1.5,1.5 0 0 0 -0.67231559,0.3883563 z"
     style=""
     id="path93" />
  <path
     d="M 1.6312006e-4,1.6312006e-4 -1.0605087,-1.0605087 a 1.5,1.5 0 0 0 -0.3883563,0.67231559 z"
     style=""
     id="path92" />
  <path
     d="M 1.6312006e-4,1.6312006e-4 -1.448865,-0.38819311 a 1.5,1.5 0 0 0 -0.051154,0.38835623006 1.5,1.5 0 0 0 0.051154,0.38783424994 1.5,1.5 0 0 1 0,5.2198e-4 z"
     style=""
     id="path91" />
  <path
     d="M 1.6312006e-4,1.6312006e-4 -1.448865,0.38851935 A 1.5,1.5 0 0 0 -1.0605087,1.060835 Z"
     style=""
     id="path90" />
  <path
     d="M 1.6312006e-4,1.6312006e-4 -1.0605087,1.060835 a 1.5,1.5 0 0 0 0.67231559,0.3878342 z"
     style=""
     id="path89" />
  <path
     d="M 1.6312006e-4,1.6312006e-4 -0.38819311,1.4486692 A 1.5,1.5 0 0 0 1.6312006e-4,1.4998237 1.5,1.5 0 0 0 0.38799737,1.4486692 Z"
     style=""
     id="path88" />
  <path
     d="M 1.6312006e-4,1.6312006e-4 0.38799737,1.4486692 A 1.5,1.5 0 0 0 1.060835,1.060835 Z"
     style=""
     id="path87" />
  <path
     d="M 1.6312006e-4,1.6312006e-4 1.060835,1.060835 a 1.5,1.5 0 0 0 0.3878342,-0.67231565 1.5,1.5 0 0 1 0,-5.2198e-4 z"
     style=""
     id="path86" />
  <path
     d="M 1.4486692,-0.38819311 A 1.5,1.5 0 0 0 1.060835,-1.0605087 L 1.6312006e-4,1.6312006e-4 Z"
     style=""
     id="path85" />
  <path
     d="M 1.4486692,-0.38819311 1.6312006e-4,1.6312006e-4 1.4486692,0.38799737 A 1.5,1.5 0 0 0 1.4998237,1.6312006e-4 1.5,1.5 0 0 0 1.4486692,-0.38819311 Z"
     style=""
     id="path84" />
  <path
     d="m 48.296227,-12.940869 a 50,50 0 0 0 -12.941031,-22.414 l -14.142118,14.141595 a 30,30 0 0 1 7.764515,13.4489225 z"
     style="fill:#00c878;fill-opacity:1"
     id="path83" />
  <path
     d="M 48.296227,-12.940869 28.977593,-7.7643515 A 30,30 0 0 1 30.00016,1.6312006e-4 30,30 0 0 1 28.977593,7.7646778 l 19.318634,5.1759952 a 50,50 0 0 0 0,-25.881542 z"
     style="fill:#00b4c8;fill-opacity:1"
     id="path82" />
  <path
     d="M 67.614862,-18.117386 A 70,70 0 0 0 60.62184,-34.99992 70,70 0 0 0 49.497313,-49.496987 l -14.142117,14.141596 v 5.22e-4 a 50,50 0 0 1 7.946165,10.355122 50,50 0 0 1 4.994866,12.058878 z"
     style="fill:#50f000;fill-opacity:1"
     id="path81" />
  <path
     d="m 67.614862,-18.117386 -19.318635,5.176517 A 50,50 0 0 1 49.999984,1.6312006e-4 50,50 0 0 1 48.296227,12.940673 L 67.614862,18.11719 A 70,70 0 0 0 69.401092,9.1369742 70,70 0 0 0 69.999808,1.6312006e-4 70,70 0 0 0 69.401092,-9.136648 a 70,70 0 0 0 -1.78623,-8.980738 z"
     style="fill:#00de00;fill-opacity:1"
     id="path80" />
  <path
     d="m 86.932974,-23.293903 -19.318112,5.176517 19.318112,-5.175995 a 90,90 0 0 1 0,-5.22e-4 z"
     style=""
     id="path79" />
  <path
     d="m 86.932974,-23.293903 a 90,90 0 0 1 0,5.22e-4 l -19.318112,5.175995 a 70,70 0 0 1 0,36.234576 l 19.318112,5.176517 a 90,90 0 0 0 5.22e-4,-46.58761 z"
     style="fill:#ffff00;fill-opacity:1"
     id="path78" />
  <path
     d="m 63.63943,-63.639104 -14.142117,14.141595 v 5.22e-4 a 70,70 0 0 1 18.117549,31.379601 l 19.318112,-5.176517 A 90,90 0 0 0 63.63943,-63.639104 Z"
     id="path77"
     style="fill:#ffaf00;fill-opacity:1" />
  <path
     d="m 23.293707,-86.93317 -5.176517,19.318112 v 5.22e-4 a 70,70 0 0 1 31.380123,18.117027 L 63.63943,-63.639626 A 90,90 0 0 0 23.293707,-86.93317 Z"
     style="fill:#ff6000;fill-opacity:1"
     id="path76" />
  <path
     d="M 1.6312006e-4,-89.999827 A 90,90 0 0 0 -23.293381,-86.93317 l 5.175995,19.318112 a 70,70 0 0 1 36.234576,0 L 23.293707,-86.93317 A 90,90 0 0 0 1.6312006e-4,-89.999827 Z"
     style="fill:#ff0000;fill-opacity:1"
     id="path75" />
  <!-- ===== ROTATED TEXT ===== -->
  <!-- Major keys (outer ring, ~80 radius) -->
  <!-- Minor keys (~60 radius) -->
  <!-- Diminished (~40 radius) -->
  <circle
     cx="2.7833162e-06"
     cy="2.7833162e-06"
     r="1.5"
     fill="#000000"
     id="circle37-4" />
  <g
     id="g72">
    <text
       transform="translate(0,-80)"
       font-size="11px"
       id="text37">C</text>
    <text
       transform="rotate(30,149.28203,40)"
       font-size="11px"
       id="text38">G</text>
    <text
       transform="rotate(60,69.282032,40)"
       font-size="11px"
       id="text39">D</text>
    <text
       transform="rotate(90,40,40)"
       font-size="11px"
       id="text40">A</text>
    <text
       transform="rotate(120,23.094011,40)"
       font-size="11px"
       id="text41">E</text>
    <text
       transform="rotate(150,10.717968,40)"
       font-size="11px"
       id="text42">B</text>
    <text
       transform="rotate(180,0,40)"
       font-size="11px"
       id="text43">F#</text>
    <text
       transform="rotate(-150,-10.717968,40)"
       font-size="11px"
       id="text44">C#</text>
    <text
       transform="rotate(-120,-23.094011,40)"
       font-size="11px"
       id="text45">Ab</text>
    <text
       transform="rotate(-90,-40,40)"
       font-size="11px"
       id="text46">Eb</text>
    <text
       transform="rotate(-60,-69.282032,40)"
       font-size="11px"
       id="text47">Bb</text>
    <text
       transform="rotate(-30,-149.28203,40)"
       font-size="11px"
       id="text48">F</text>
    <text
       transform="translate(0,-60)"
       font-size="7px"
       id="text49">Am</text>
    <text
       transform="rotate(30,111.96152,30)"
       font-size="7px"
       id="text50">Em</text>
    <text
       transform="rotate(60,51.961524,30)"
       font-size="7px"
       id="text51">Bm</text>
    <text
       transform="rotate(90,30,30)"
       font-size="7px"
       id="text52">F#m</text>
    <text
       transform="rotate(120,17.320508,30)"
       font-size="7px"
       id="text53">C#m</text>
    <text
       transform="rotate(150,8.0384758,30)"
       font-size="7px"
       id="text54">G#m</text>
    <text
       transform="rotate(180,0,30)"
       font-size="7px"
       id="text55">D#m</text>
    <text
       transform="rotate(-150,-8.0384758,30)"
       font-size="7px"
       id="text56">A#m</text>
    <text
       transform="rotate(-120,-17.320508,30)"
       font-size="7px"
       id="text57">Fm</text>
    <text
       transform="rotate(-90,-30,30)"
       font-size="7px"
       id="text58">Cm</text>
    <text
       transform="rotate(-60,-51.961524,30)"
       font-size="7px"
       id="text59">Gm</text>
    <text
       transform="rotate(-30,-111.96152,30)"
       font-size="7px"
       id="text60">Dm</text>
    <text
       transform="translate(0,-40)"
       font-size="5px"
       id="text61">B°</text>
    <text
       transform="rotate(30,74.641016,20)"
       font-size="5px"
       id="text62">F#°</text>
    <text
       transform="rotate(60,34.641016,20)"
       font-size="5px"
       id="text63">C#°</text>
    <text
       transform="rotate(90,20,20)"
       font-size="5px"
       id="text64">G#°</text>
    <text
       transform="rotate(120,11.547005,20)"
       font-size="5px"
       id="text65">D#°</text>
    <text
       transform="rotate(150,5.3589838,20)"
       font-size="5px"
       id="text66">A#°</text>
    <text
       transform="rotate(180,0,20)"
       font-size="5px"
       id="text67">F°</text>
    <text
       transform="rotate(-150,-5.3589838,20)"
       font-size="5px"
       id="text68">C°</text>
    <text
       transform="rotate(-120,-11.547005,20)"
       font-size="5px"
       id="text69">G°</text>
    <text
       transform="rotate(-90,-20,20)"
       font-size="5px"
       id="text70">D°</text>
    <text
       transform="rotate(-60,-34.641016,20)"
       font-size="5px"
       id="text71">A°</text>
    <text
       transform="rotate(-30,-74.641016,20)"
       font-size="5px"
       id="text72">E°</text>
  </g>
  <rect
     style="fill:none;stroke:none;stroke-width:2.09967"
     id="rect1"
     width="199.92053"
     height="199.92055"
     x="-98.950165"
     y="-98.950165" />
</svg>
